<?xml version="1.0" encoding="utf-8"?>
<!-- Generator: Adobe Illustrator 16.0.0, SVG Export Plug-In . SVG Version: 6.00 Build 0)  -->
<!DOCTYPE svg PUBLIC "-//W3C//DTD SVG 1.1//EN" "http://www.w3.org/Graphics/SVG/1.1/DTD/svg11.dtd">
<svg version="1.1" id="Layer_1" xmlns="http://www.w3.org/2000/svg" xmlns:xlink="http://www.w3.org/1999/xlink" x="0px" y="0px"
	 width="1000px" height="1000px" viewBox="0 0 1000 1000" enable-background="new 0 0 1000 1000" xml:space="preserve">
<path fill="#D9F4FF" d="M301.658,767.854C107.948,700.036,66.1,460.119,143.555,283.79
	C188.958,180.429,270.96,140.223,379.881,149.25c105.542,8.746,232.563-10.145,332.707,25.762
	c84.79,30.402,156.919,98.167,187.264,183.612c32.735,92.173-15.598,191.56-46.077,279.283
	C783.66,839.711,464.68,824.927,301.658,767.854z"/>
<g>
	<defs>
		<path id="SVGID_1_" d="M301.658,768.684C107.948,700.866,66.1,460.948,143.555,284.62
			C188.958,181.259,270.96,141.053,379.881,150.08c105.542,8.747,232.563-10.145,332.707,25.762
			c84.79,30.402,156.919,98.168,187.264,183.613c32.735,92.173-15.598,191.559-46.077,279.283
			C783.66,840.541,464.68,825.758,301.658,768.684z"/>
	</defs>
	<clipPath id="SVGID_2_">
		<use xlink:href="#SVGID_1_"  overflow="visible"/>
	</clipPath>
	<g clip-path="url(#SVGID_2_)">
		<rect id="XMLID_44_" x="595.882" y="696.938" fill="#FFFFFF" width="74.817" height="210.118"/>
		<rect id="XMLID_43_" x="633.29" y="615.87" fill="#FFFFFF" width="37.409" height="291.187"/>
		<g id="XMLID_404_">
			<rect id="XMLID_433_" x="163.015" y="427.79" fill="#EFF9FE" width="17.534" height="39.842"/>
			<rect id="XMLID_432_" x="163.015" y="446.654" fill="#C9EFFF" width="17.534" height="20.978"/>
			<rect id="XMLID_431_" x="98.694" y="401.894" fill="#EFF9FE" width="40.147" height="65.738"/>
			<rect id="XMLID_430_" x="98.694" y="446.654" fill="#C9EFFF" width="40.147" height="20.978"/>
			<rect id="XMLID_429_" x="89.779" y="455.162" fill="#EFF9FE" width="115.333" height="356.217"/>
			<g id="XMLID_421_">
				<rect id="XMLID_428_" x="167.314" y="491.37" fill="#C9EFFF" width="11.673" height="15.256"/>
				<rect id="XMLID_427_" x="167.314" y="522.81" fill="#C9EFFF" width="11.673" height="15.255"/>
				<rect id="XMLID_426_" x="167.314" y="554.249" fill="#C9EFFF" width="11.673" height="15.255"/>
				<rect id="XMLID_425_" x="167.314" y="585.689" fill="#C9EFFF" width="11.673" height="15.254"/>
				<rect id="XMLID_424_" x="167.314" y="617.129" fill="#C9EFFF" width="11.673" height="15.256"/>
				<rect id="XMLID_423_" x="167.314" y="648.568" fill="#C9EFFF" width="11.673" height="15.255"/>
				<rect id="XMLID_422_" x="167.314" y="680.008" fill="#C9EFFF" width="11.673" height="15.255"/>
			</g>
			<g id="XMLID_413_">
				<rect id="XMLID_420_" x="133.004" y="491.37" fill="#C9EFFF" width="11.673" height="15.256"/>
				<rect id="XMLID_419_" x="133.004" y="522.81" fill="#C9EFFF" width="11.673" height="15.255"/>
				<rect id="XMLID_418_" x="133.004" y="554.249" fill="#C9EFFF" width="11.673" height="15.255"/>
				<rect id="XMLID_417_" x="133.004" y="585.689" fill="#C9EFFF" width="11.673" height="15.254"/>
				<rect id="XMLID_416_" x="133.004" y="617.129" fill="#C9EFFF" width="11.673" height="15.256"/>
				<rect id="XMLID_415_" x="133.004" y="648.568" fill="#C9EFFF" width="11.673" height="15.255"/>
				<rect id="XMLID_414_" x="133.004" y="680.008" fill="#C9EFFF" width="11.673" height="15.255"/>
			</g>
			<g id="XMLID_405_">
				<rect id="XMLID_412_" x="98.694" y="491.37" fill="#C9EFFF" width="11.674" height="15.256"/>
				<rect id="XMLID_411_" x="98.694" y="522.81" fill="#C9EFFF" width="11.674" height="15.255"/>
				<rect id="XMLID_410_" x="98.694" y="554.249" fill="#C9EFFF" width="11.674" height="15.255"/>
				<rect id="XMLID_409_" x="98.694" y="585.689" fill="#C9EFFF" width="11.674" height="15.254"/>
				<rect id="XMLID_408_" x="98.694" y="617.129" fill="#C9EFFF" width="11.674" height="15.256"/>
				<rect id="XMLID_407_" x="98.694" y="648.568" fill="#C9EFFF" width="11.674" height="15.255"/>
				<rect id="XMLID_406_" x="98.694" y="680.008" fill="#C9EFFF" width="11.674" height="15.255"/>
			</g>
		</g>
		<g id="XMLID_3_">
			<rect id="XMLID_41_" x="743.348" y="440.094" fill="#EFF9FE" width="17.535" height="39.842"/>
			<rect id="XMLID_40_" x="743.348" y="458.958" fill="#C9EFFF" width="17.535" height="20.978"/>
			<rect id="XMLID_39_" x="679.027" y="414.199" fill="#EFF9FE" width="40.146" height="65.738"/>
			<rect id="XMLID_38_" x="679.027" y="458.958" fill="#C9EFFF" width="40.146" height="20.978"/>
			<rect id="XMLID_37_" x="663.198" y="467.467" fill="#EFF9FE" width="122.248" height="356.217"/>
			<g id="XMLID_29_">
				<rect id="XMLID_36_" x="747.648" y="503.675" fill="#C9EFFF" width="11.673" height="15.256"/>
				<rect id="XMLID_35_" x="747.648" y="535.114" fill="#C9EFFF" width="11.673" height="15.255"/>
				<rect id="XMLID_34_" x="747.648" y="566.555" fill="#C9EFFF" width="11.673" height="15.256"/>
				<rect id="XMLID_33_" x="747.648" y="597.994" fill="#C9EFFF" width="11.673" height="15.256"/>
				<rect id="XMLID_32_" x="747.648" y="629.434" fill="#C9EFFF" width="11.673" height="15.256"/>
				<rect id="XMLID_31_" x="747.648" y="660.873" fill="#C9EFFF" width="11.673" height="15.255"/>
				<rect id="XMLID_30_" x="747.648" y="692.313" fill="#C9EFFF" width="11.673" height="15.255"/>
			</g>
			<g id="XMLID_20_">
				<rect id="XMLID_28_" x="713.338" y="503.675" fill="#C9EFFF" width="11.673" height="15.256"/>
				<rect id="XMLID_27_" x="713.338" y="535.114" fill="#C9EFFF" width="11.673" height="15.255"/>
				<rect id="XMLID_26_" x="713.338" y="566.555" fill="#C9EFFF" width="11.673" height="15.256"/>
				<rect id="XMLID_25_" x="713.338" y="597.994" fill="#C9EFFF" width="11.673" height="15.256"/>
				<rect id="XMLID_24_" x="713.338" y="629.434" fill="#C9EFFF" width="11.673" height="15.256"/>
				<rect id="XMLID_23_" x="713.338" y="660.873" fill="#C9EFFF" width="11.673" height="15.255"/>
				<rect id="XMLID_21_" x="713.338" y="692.313" fill="#C9EFFF" width="11.673" height="15.255"/>
			</g>
			<g id="XMLID_11_">
				<rect id="XMLID_19_" x="679.027" y="503.675" fill="#C9EFFF" width="11.674" height="15.256"/>
				<rect id="XMLID_18_" x="679.027" y="535.114" fill="#C9EFFF" width="11.674" height="15.255"/>
				<rect id="XMLID_17_" x="679.027" y="566.555" fill="#C9EFFF" width="11.674" height="15.256"/>
				<rect id="XMLID_16_" x="679.027" y="597.994" fill="#C9EFFF" width="11.674" height="15.256"/>
				<rect id="XMLID_15_" x="679.027" y="629.434" fill="#C9EFFF" width="11.674" height="15.256"/>
				<rect id="XMLID_14_" x="679.027" y="660.873" fill="#C9EFFF" width="11.674" height="15.255"/>
				<rect id="XMLID_12_" x="679.027" y="692.313" fill="#C9EFFF" width="11.674" height="15.255"/>
			</g>
		</g>
		<rect id="XMLID_434_" x="286.882" y="603.208" fill="#EFF9FE" width="74.818" height="210.118"/>
		<rect id="XMLID_435_" x="324.291" y="522.141" fill="#EFF9FE" width="37.41" height="291.186"/>
		<rect id="XMLID_436_" x="342.995" y="617.391" fill="#EFF9FE" width="37.408" height="195.936"/>
		<g id="XMLID_297_">
			<polygon id="XMLID_359_" fill="#FFFFFF" points="848.951,360.964 759.231,360.964 759.231,278.339 848.951,320.661 			"/>
			<rect id="XMLID_358_" x="739.332" y="341.803" fill="#FFFFFF" width="129.519" height="439.087"/>
			<rect id="XMLID_357_" x="759.231" y="332.833" fill="#EBF9FF" width="89.72" height="8.971"/>
			<g id="XMLID_344_">
				<rect id="XMLID_349_" x="771.775" y="521.321" fill="#EBF9FF" width="13.218" height="20.39"/>
				<rect id="XMLID_348_" x="771.775" y="486.93" fill="#EBF9FF" width="13.218" height="20.388"/>
				<rect id="XMLID_347_" x="771.775" y="452.539" fill="#EBF9FF" width="13.218" height="20.39"/>
				<rect id="XMLID_346_" x="771.775" y="418.147" fill="#EBF9FF" width="13.218" height="20.39"/>
				<rect id="XMLID_345_" x="771.775" y="383.756" fill="#EBF9FF" width="13.218" height="20.389"/>
			</g>
			<g id="XMLID_331_">
				<rect id="XMLID_336_" x="797.481" y="521.321" fill="#EBF9FF" width="13.219" height="20.39"/>
				<rect id="XMLID_335_" x="797.481" y="486.93" fill="#EBF9FF" width="13.219" height="20.388"/>
				<rect id="XMLID_334_" x="797.481" y="452.539" fill="#EBF9FF" width="13.219" height="20.39"/>
				<rect id="XMLID_333_" x="797.481" y="418.147" fill="#EBF9FF" width="13.219" height="20.39"/>
				<rect id="XMLID_332_" x="797.481" y="383.756" fill="#EBF9FF" width="13.219" height="20.389"/>
			</g>
			<g id="XMLID_298_">
				<rect id="XMLID_311_" x="823.188" y="521.321" fill="#EBF9FF" width="13.218" height="20.39"/>
				<rect id="XMLID_310_" x="823.188" y="486.93" fill="#EBF9FF" width="13.218" height="20.388"/>
				<rect id="XMLID_301_" x="823.188" y="452.539" fill="#EBF9FF" width="13.218" height="20.39"/>
				<rect id="XMLID_300_" x="823.188" y="418.147" fill="#EBF9FF" width="13.218" height="20.39"/>
				<rect id="XMLID_299_" x="823.188" y="383.756" fill="#EBF9FF" width="13.218" height="20.389"/>
			</g>
		</g>
		<g id="XMLID_360_">
			<rect id="XMLID_403_" x="227.164" y="211.668" fill="#FFFFFF" width="14.482" height="114.551"/>
			<rect id="XMLID_402_" x="227.164" y="315.606" fill="#EBF9FF" width="14.482" height="10.613"/>
			<rect id="XMLID_401_" x="255.273" y="272.148" fill="#FFFFFF" width="26.36" height="67.021"/>
			<rect id="XMLID_400_" x="192.717" y="323.626" fill="#FFFFFF" width="105.059" height="487.752"/>
			<rect id="XMLID_399_" x="255.273" y="316.351" fill="#EBF9FF" width="26.36" height="7.276"/>
			<rect id="XMLID_398_" x="260.737" y="636.619" fill="#EBF9FF" width="10.722" height="16.538"/>
			<rect id="XMLID_397_" x="260.737" y="608.722" fill="#EBF9FF" width="10.722" height="16.539"/>
			<rect id="XMLID_394_" x="260.737" y="525.034" fill="#EBF9FF" width="10.722" height="16.538"/>
			<rect id="XMLID_391_" x="260.737" y="497.138" fill="#EBF9FF" width="10.722" height="16.538"/>
			<rect id="XMLID_389_" x="260.737" y="441.346" fill="#EBF9FF" width="10.722" height="16.538"/>
			<rect id="XMLID_386_" x="260.737" y="357.656" fill="#EBF9FF" width="10.722" height="16.539"/>
			<rect id="XMLID_382_" x="239.886" y="580.827" fill="#EBF9FF" width="10.722" height="16.538"/>
			<rect id="XMLID_379_" x="239.886" y="497.138" fill="#EBF9FF" width="10.722" height="16.538"/>
			<rect id="XMLID_378_" x="239.886" y="469.242" fill="#EBF9FF" width="10.722" height="16.538"/>
			<rect id="XMLID_376_" x="239.886" y="413.448" fill="#EBF9FF" width="10.722" height="16.539"/>
			<rect id="XMLID_375_" x="239.886" y="385.552" fill="#EBF9FF" width="10.722" height="16.539"/>
			<rect id="XMLID_372_" x="219.034" y="636.619" fill="#EBF9FF" width="10.722" height="16.538"/>
			<rect id="XMLID_370_" x="219.034" y="580.827" fill="#EBF9FF" width="10.722" height="16.538"/>
			<rect id="XMLID_368_" x="219.034" y="525.034" fill="#EBF9FF" width="10.722" height="16.538"/>
			<rect id="XMLID_366_" x="219.034" y="469.242" fill="#EBF9FF" width="10.722" height="16.538"/>
			<rect id="XMLID_363_" x="219.034" y="385.552" fill="#EBF9FF" width="10.722" height="16.539"/>
		</g>
	</g>
</g>
<linearGradient id="SVGID_3_" gradientUnits="userSpaceOnUse" x1="862.0605" y1="331.0947" x2="654.9629" y2="467.5909">
	<stop  offset="0" style="stop-color:#B3E2FC"/>
	<stop  offset="1" style="stop-color:#2D9BEE"/>
</linearGradient>
<path fill="url(#SVGID_3_)" d="M901.128,323.785L901.128,323.785c0-4.662-3.779-8.442-8.442-8.442h-22.648
	c-4.661,0-8.44-3.78-8.44-8.442l0,0c0-4.663-3.781-8.442-8.443-8.442h-14.909c-4.664,0-8.443,3.78-8.443,8.442l0,0
	c0,4.662-3.779,8.442-8.442,8.442h-15.91c-4.662,0-8.441,3.78-8.441,8.442l0,0c0,4.663-3.781,8.443-8.443,8.443h-22.231
	c-4.664,0-8.443,3.78-8.443,8.442l0,0c0,4.662,3.779,8.442,8.443,8.442h73.841h14.703h73.858c4.663,0,8.442-3.78,8.442-8.442l0,0
	c0-4.663-3.779-8.442-8.442-8.442h-19.163C904.907,332.228,901.128,328.447,901.128,323.785z"/>
<linearGradient id="SVGID_4_" gradientUnits="userSpaceOnUse" x1="173.8276" y1="396.3848" x2="-37.0849" y2="541.2975">
	<stop  offset="0" style="stop-color:#B3E2FC"/>
	<stop  offset="1" style="stop-color:#2D9BEE"/>
</linearGradient>
<path fill="url(#SVGID_4_)" d="M218.31,386.309L218.31,386.309c0-5.05-4.094-9.145-9.145-9.145h-24.532
	c-5.051,0-9.146-4.095-9.146-9.145l0,0c0-5.051-4.095-9.146-9.145-9.146h-16.151c-5.052,0-9.146,4.095-9.146,9.146l0,0
	c0,5.05-4.095,9.145-9.145,9.145h-17.234c-5.051,0-9.146,4.095-9.146,9.145l0,0c0,5.051-4.094,9.146-9.145,9.146H72.293
	c-5.05,0-9.145,4.094-9.145,9.145l0,0c0,5.051,4.095,9.145,9.145,9.145h1.78c5.05,0,9.145,4.094,9.145,9.145l0,0
	c0,5.051,4.095,9.145,9.145,9.145h77.462c5.05,0,9.145-4.094,9.145-9.145l0,0c0-5.051,4.094-9.145,9.145-9.145h8.382
	c5.051,0,9.145,4.094,9.145,9.145l0,0c0,5.051,4.095,9.145,9.146,9.145h10.042c5.05,0,9.146-4.094,9.146-9.145l0,0
	c0-5.051,4.094-9.145,9.145-9.145h5.096c5.051,0,9.145-4.094,9.145-9.145l0,0c0-5.051-4.094-9.145-9.145-9.145h-20.76
	C222.404,395.454,218.31,391.359,218.31,386.309z M126.427,404.599L126.427,404.599c0-5.051,4.095-9.145,9.146-9.145h7.563
	c5.05,0,9.145,4.094,9.145,9.145l0,0c0,5.051-4.095,9.145-9.145,9.145h-7.563C130.522,413.744,126.427,409.65,126.427,404.599z"/>
<defs>
	<filter id="Adobe_OpacityMaskFilter" filterUnits="userSpaceOnUse" x="160.254" y="692.142" width="719.987" height="133.015">
		<feFlood  style="flood-color:white;flood-opacity:1" result="back"/>
		<feBlend  in="SourceGraphic" in2="back" mode="normal"/>
	</filter>
</defs>
<mask maskUnits="userSpaceOnUse" x="160.254" y="692.142" width="719.987" height="133.015" id="SVGID_5_">
	<g filter="url(#Adobe_OpacityMaskFilter)">
		<defs>
			
				<filter id="Adobe_OpacityMaskFilter_1_" filterUnits="userSpaceOnUse" x="160.254" y="692.142" width="719.987" height="133.015">
				<feFlood  style="flood-color:white;flood-opacity:1" result="back"/>
				<feBlend  in="SourceGraphic" in2="back" mode="normal"/>
			</filter>
		</defs>
		<mask maskUnits="userSpaceOnUse" x="160.254" y="692.142" width="719.987" height="133.015" id="SVGID_5_">
			<g filter="url(#Adobe_OpacityMaskFilter_1_)">
			</g>
		</mask>
		<linearGradient id="SVGID_6_" gradientUnits="userSpaceOnUse" x1="160.2539" y1="758.6484" x2="880.2412" y2="758.6484">
			<stop  offset="0" style="stop-color:#333333"/>
			<stop  offset="1" style="stop-color:#CCCCCC"/>
		</linearGradient>
		<path mask="url(#SVGID_5_)" fill="url(#SVGID_6_)" d="M492.917,694.077c-104.454-2.043-209.194,11.335-309.78,39.567
			c-11.026,3.094-24.555,10.12-22.713,21.423c1.283,7.874,9.673,12.26,17.224,14.834c57.898,19.73,121.806,4.498,182.239,13.946
			c33.186,5.187,64.716,17.729,97.198,26.283c62.049,16.339,126.919,17.804,190.507,11.735c30.455-2.907,60.195-8.653,90.326-13.023
			c28.793-4.176,57.673-9.361,85.128-19.243c14.658-5.275,28.853-11.888,42.027-20.227c5.175-3.274,10.392-7.043,13.094-12.538
			c16.244-33.041-67.656-48.428-86.266-48.919c-119.274-3.14-150.402-12.633-269.677-15.774L492.917,694.077z"/>
	</g>
</mask>
<path fill="#35E3D3" d="M492.917,694.077c-104.454-2.043-209.194,11.335-309.78,39.567c-11.026,3.094-24.555,10.12-22.713,21.423
	c1.283,7.874,9.673,12.26,17.224,14.834c57.898,19.73,121.806,4.498,182.239,13.946c33.186,5.187,64.716,17.729,97.198,26.283
	c62.049,16.339,126.919,17.804,190.507,11.735c30.455-2.907,60.195-8.653,90.326-13.023c28.793-4.176,57.673-9.361,85.128-19.243
	c14.658-5.275,28.853-11.888,42.027-20.227c5.175-3.274,10.392-7.043,13.094-12.538c16.244-33.041-67.656-48.428-86.266-48.919
	c-119.274-3.14-150.402-12.633-269.677-15.774L492.917,694.077z"/>
<circle fill="#B3E2FC" cx="690.66" cy="215.574" r="6.555"/>
<circle fill="#B3E2FC" cx="349.339" cy="278.983" r="6.554"/>
<path fill="#B3E2FC" d="M310.181,200.159h-4.294v-4.295c0-1.81-1.468-3.278-3.278-3.278c-1.81,0-3.277,1.468-3.277,3.278v4.295
	h-4.296c-1.809,0-3.277,1.467-3.277,3.277c0,1.811,1.468,3.278,3.277,3.278h4.296v4.295c0,1.811,1.467,3.277,3.277,3.277
	c1.811,0,3.278-1.467,3.278-3.277v-4.295h4.294c1.811,0,3.278-1.467,3.278-3.278C313.459,201.626,311.991,200.159,310.181,200.159z"
	/>
<path fill="#B3E2FC" d="M686.194,282.261h-4.295v-4.295c0-1.811-1.468-3.278-3.278-3.278c-1.809,0-3.276,1.467-3.276,3.278v4.295
	h-4.296c-1.81,0-3.277,1.467-3.277,3.277s1.468,3.278,3.277,3.278h4.296v4.295c0,1.81,1.468,3.277,3.276,3.277
	c1.811,0,3.278-1.468,3.278-3.277v-4.295h4.295c1.811,0,3.278-1.468,3.278-3.278S688.005,282.261,686.194,282.261z"/>
<g>
	<g>
		<g>
			<g>
				<path fill="#35E3D3" d="M308.635,749.254l2.213,0.058c0,0-0.016-2.139-0.044-5.885c0.003-1.872-0.011-4.146-0.265-6.742
					c-0.253-2.593-0.27-5.55-0.809-8.715c-1.559-12.713-5.624-29.53-12.947-45.015c-3.525-7.796-7.897-15.171-12.305-21.859
					c-2.285-3.29-4.572-6.423-6.824-9.324c-2.387-2.791-4.477-5.58-6.709-7.884c-2.224-2.31-4.159-4.531-6.061-6.313
					c-1.905-1.778-3.565-3.328-4.937-4.605c-1.332-1.315-2.544-2.164-3.298-2.824c-0.776-0.636-1.189-0.975-1.189-0.975l-1.406,1.71
					c0,0,0.407,0.335,1.173,0.96c0.74,0.649,1.935,1.484,3.251,2.778c1.346,1.258,2.981,2.785,4.855,4.539
					c1.878,1.754,3.783,3.944,5.975,6.219c2.201,2.268,4.256,5.018,6.611,7.769c2.219,2.857,4.471,5.945,6.726,9.188
					c4.341,6.596,8.651,13.866,12.129,21.549c7.221,15.268,11.224,31.839,12.759,44.359c0.534,3.118,0.545,6.028,0.799,8.58
					c0.248,2.561,0.264,4.796,0.259,6.64C308.618,747.148,308.635,749.254,308.635,749.254z"/>
			</g>
			<path fill="#35E3D3" d="M255.739,650.621c3.328-0.79,6.249-2.715,8.294-4.482c2.054-1.764,3.232-3.372,3.232-3.372
				s-1.646-1.123-4.151-2.001c-2.593-0.795-6.004-1.338-9.332-0.388c-3.31,0.93-6.007,3.229-7.862,5.197
				c-1.855,1.974-2.901,3.647-2.901,3.647s0.392,0.156,1.063,0.43c0.661,0.267,1.613,0.6,2.78,0.878
				C249.157,651.119,252.461,651.351,255.739,650.621z"/>
			<path fill="#35E3D3" d="M286.635,642.75c-0.947,3.511-3.26,6.106-5.322,7.888c-2.056,1.765-3.814,2.678-3.814,2.678
				s-0.885-1.765-1.542-4.415c-0.663-2.643-1.068-6.243-0.35-9.704c0.778-3.504,2.797-6.384,4.66-8.347
				c1.858-1.968,3.563-3.02,3.563-3.02s1.214,1.936,2.216,4.746C286.97,635.45,287.572,639.249,286.635,642.75z"/>
			<path fill="#35E3D3" d="M267.381,629.05c-0.669,4.704-4.952,7.746-4.952,7.746s-0.729-1.081-1.382-2.755
				c-0.642-1.688-1.233-3.959-1.032-6.255c0.446-4.671,4.476-8.021,4.476-8.021s0.903,1.117,1.74,2.816
				C267.057,624.296,267.695,626.701,267.381,629.05z"/>
			<path fill="#35E3D3" d="M252.728,623.233c1.861,1.53,2.841,3.722,3.399,5.409c0.551,1.707,0.634,2.998,0.634,2.998
				s-1.327,0.024-3.056-0.32c-1.756-0.318-3.818-1.106-5.602-2.523c-3.549-2.797-4.383-8.044-4.383-8.044
				S248.91,620.235,252.728,623.233z"/>
			<path fill="#35E3D3" d="M267.747,670.139c4.242-0.358,8.091-2.016,10.959-3.741c2.849-1.698,4.619-3.397,4.619-3.397
				s-1.724-1.729-4.688-3.218c-2.918-1.522-6.826-2.929-11.148-2.299c-4.259,0.575-7.89,2.819-10.51,4.856
				c-2.613,2.042-4.218,3.879-4.218,3.879s1.654,1.145,4.399,2.146C259.827,669.434,263.478,670.513,267.747,670.139z"/>
			<path fill="#35E3D3" d="M306.768,667.344c-1.888,4.036-5.4,6.695-8.264,8.342c-2.885,1.651-5.222,2.342-5.222,2.342
				s-0.107-0.592-0.294-1.615c-0.193-1-0.414-2.414-0.513-4.091c-0.171-3.369,0.033-7.763,1.663-11.832
				c1.695-4.102,4.74-7.182,7.407-9.167c2.662-1.992,4.944-2.893,4.944-2.893s1.07,2.667,1.693,6.354
				C308.8,658.478,308.651,663.316,306.768,667.344z"/>
			<path fill="#35E3D3" d="M281.514,695.219c4.165,0.562,8.38-0.305,11.521-1.387c3.146-1.071,5.22-2.359,5.22-2.359
				s-1.415-2.013-3.862-4.148c-2.524-2.104-6.246-4.204-10.438-4.575c-4.218-0.369-8.353,1.12-11.314,2.549
				c-2.989,1.451-4.93,2.907-4.93,2.907s0.36,0.363,1.037,0.914c0.661,0.564,1.561,1.352,2.764,2.155
				C273.905,692.882,277.426,694.622,281.514,695.219z"/>
			<path fill="#35E3D3" d="M320.285,700.609c-2.795,3.59-6.679,5.426-9.84,6.441c-3.165,1.008-5.604,1.197-5.604,1.197
				s-0.097-2.434,0.5-5.781c0.433-3.295,1.486-7.534,4.077-11.229c2.505-3.658,6.064-6.012,9.093-7.404
				c3.014-1.396,5.445-1.807,5.445-1.807s0.625,2.78,0.313,6.579C323.99,692.392,323.17,696.994,320.285,700.609z"/>
			<path fill="#35E3D3" d="M289.488,721.217c4.006,1.373,8.322,1.373,11.62,0.952c3.301-0.413,5.583-1.252,5.583-1.252
				s-1.021-2.249-3.039-4.82c-1.93-2.594-5.203-5.382-9.299-6.563c-4.097-1.186-8.312-0.586-11.523,0.229
				c-3.21,0.829-5.424,1.872-5.424,1.872s1.021,1.721,3.089,3.753C282.653,717.398,285.465,719.846,289.488,721.217z"/>
			<path fill="#35E3D3" d="M326.313,734.444c-3.436,2.942-7.604,3.923-10.904,4.255c-3.301,0.322-5.737-0.002-5.737-0.002
				s1.625-9.536,7.898-15.713c3.24-3.086,7.289-4.694,10.516-5.438c3.232-0.757,5.693-0.66,5.693-0.66s-0.127,2.904-1.091,6.563
				C331.813,727.097,329.771,731.501,326.313,734.444z"/>
		</g>
		<g>
			<g>
				<path fill="#35E3D3" d="M644.387,754.934l2.349,0.035c0,0,0.063-2.232,0.179-6.136c0.141-3.903,0.457-9.478,1.057-16.148
					c1.244-13.334,4.066-31.032,8.861-48.251c4.633-17.263,11.257-33.917,16.985-46.019c2.821-6.07,5.511-10.909,7.617-14.128
					c2.098-3.229,3.487-4.911,3.487-4.911l-1.845-1.45c0,0-1.453,1.759-3.614,5.084c-2.172,3.323-4.922,8.278-7.769,14.403
					c-5.775,12.203-12.456,28.998-17.128,46.401c-4.834,17.359-7.677,35.203-8.93,48.647c-0.608,6.726-0.928,12.347-1.071,16.283
					C644.453,752.682,644.387,754.934,644.387,754.934z"/>
			</g>
			<path fill="#35E3D3" d="M661.686,625.342c1.768,3.471,4.765,5.674,7.268,7.069c2.513,1.39,4.548,1.963,4.548,1.963
				s0.473-2.051,0.589-4.955c0.104-2.91-0.058-6.689-1.454-10.329c-1.426-3.637-3.878-6.414-6.152-8.195
				c-2.249-1.792-4.239-2.568-4.239-2.568s-1.22,2.561-1.792,5.96C659.85,617.694,659.907,621.882,661.686,625.342z"/>
			<path fill="#35E3D3" d="M682.315,652.278c-3.662,0.562-7.29-0.254-9.984-1.236c-2.698-0.982-4.469-2.134-4.469-2.134
				s1.248-1.715,3.406-3.562c2.183-1.837,5.351-3.752,9.026-4.237c3.694-0.468,7.245,0.625,9.871,1.762
				c2.629,1.148,4.353,2.365,4.353,2.365s-1.22,1.404-3.351,3.066C689.026,649.933,685.948,651.705,682.315,652.278z"/>
			<path fill="#35E3D3" d="M687.144,631.04c-2.4-0.03-4.677-0.823-6.359-1.69c-1.679-0.854-2.741-1.745-2.741-1.745
				s0.938-1.024,2.511-2.007c1.58-0.982,3.796-1.877,6.199-1.677c2.411,0.212,4.518,1.396,6.059,2.476
				c1.536,1.084,2.508,2.064,2.508,2.064s-0.856,0.589-2.293,1.244C691.575,630.321,689.541,631.06,687.144,631.04z"/>
			<path fill="#35E3D3" d="M690.983,617.157c-1.629,1.495-3.729,2.343-5.478,2.904c-1.74,0.557-3.114,0.757-3.114,0.757
				s-0.15-1.373,0.21-3.256c0.339-1.883,1.282-4.286,3.231-6.076c1.955-1.789,4.498-2.433,6.376-2.552
				c1.924-0.088,3.221,0.265,3.221,0.265s-0.377,1.327-1.093,2.929C693.612,613.755,692.636,615.685,690.983,617.157z"/>
			<path fill="#35E3D3" d="M646.979,650.191c2.615,3.912,6.582,6.257,9.806,7.645c3.24,1.388,5.792,1.836,5.792,1.836
				s0.309-2.576,0.072-6.103c-0.301-3.552-1.099-8.061-3.596-12.03c-2.516-3.975-6.21-6.602-9.349-8.211
				c-3.133-1.616-5.671-2.197-5.671-2.197s-0.611,2.789-0.539,6.579C643.517,641.484,644.384,646.293,646.979,650.191z"/>
			<path fill="#35E3D3" d="M675.587,680.34c-4.388,1.137-8.919,0.625-12.341-0.217c-3.424-0.834-5.736-2.004-5.736-2.004
				s1.296-2.258,3.686-4.787c2.478-2.506,5.996-5.27,10.491-6.266c4.481-1.005,8.938-0.141,12.294,0.93
				c3.353,1.074,5.603,2.354,5.603,2.354s-1.341,1.921-3.75,4.123C683.477,676.695,679.937,679.187,675.587,680.34z"/>
			<path fill="#35E3D3" d="M635.952,684.951c3.094,3.576,7.257,5.418,10.634,6.411c3.381,0.991,5.974,1.134,5.974,1.134
				s0.045-2.584-0.68-6.075c-0.633-3.463-2.081-7.876-4.99-11.501c-2.933-3.631-6.954-5.806-10.26-7.028
				c-3.304-1.225-5.892-1.497-5.892-1.497s-0.28,2.835,0.234,6.582C631.545,676.742,632.819,681.367,635.952,684.951z"/>
			<path fill="#35E3D3" d="M667.935,711.464c-4.25,1.646-8.754,1.687-12.264,1.258c-3.496-0.421-5.938-1.305-5.938-1.305
				s0.972-2.406,3.111-5.192c2.072-2.797,5.349-5.94,9.648-7.477c4.28-1.544,8.853-1.205,12.308-0.548
				c3.458,0.669,5.839,1.671,5.839,1.671s-1.087,2.07-3.204,4.551C675.263,706.889,672.201,709.817,667.935,711.464z"/>
			<path fill="#35E3D3" d="M629.367,719.062c3.458,3.198,7.805,4.556,11.284,5.161c3.474,0.598,6.059,0.443,6.059,0.443
				s-0.236-2.571-1.335-5.954c-1.126-3.386-2.896-7.576-6.296-10.866c-3.322-3.272-7.548-4.974-10.975-5.811
				c-3.422-0.843-6.023-0.82-6.023-0.82s0.002,2.841,0.993,6.516C623.999,711.397,625.88,715.859,629.367,719.062z"/>
			<path fill="#35E3D3" d="M664.157,741.756c-3.988,2.122-8.512,2.676-12.035,2.65c-3.521-0.02-6.045-0.619-6.045-0.619
				s0.68-2.5,2.482-5.512c1.795-3.011,4.604-6.513,8.749-8.525c4.11-2.015,8.641-2.207,12.151-1.943
				c3.51,0.27,5.998,0.994,5.998,0.994s-0.823,2.183-2.679,4.881C670.965,736.382,668.18,739.633,664.157,741.756z"/>
		</g>
	</g>
	<g>
		<rect x="688.448" y="340.594" fill="#446BFF" width="57.66" height="415.083"/>
		<rect x="591.172" y="423.962" fill="#446BFF" width="57.661" height="331.714"/>
		<rect x="493.896" y="488.565" fill="#446BFF" width="57.657" height="267.111"/>
		<rect x="396.617" y="551.391" fill="#446BFF" width="57.66" height="204.286"/>
		<rect x="299.342" y="607.065" fill="#446BFF" width="57.657" height="148.611"/>
	</g>
	<g>
		<path fill="#F9A91C" d="M450.905,347.261l31.993-15.498c0.926-0.447,1.941-0.675,2.965-0.665l31.484,0.324v9.606l-30.788,3.05
			c-1.095,0.109-2.149,0.489-3.061,1.104l-35.245,23.775l-4.473-11.634L450.905,347.261z"/>
		<path fill="#404B69" d="M435.522,324.851c9.417,3.053,10.573,8.185,9.966,11.555c0,0-9.274,6.833-12.03,8.195
			c0,0,5.029,6.619,5.282,8.712l-8.467,1.32c0,0-5.418-2.853-6.684-7.774c-1.264-4.922-0.009-10.154,3.297-13.091
			C430.19,330.831,436.899,330.435,435.522,324.851z"/>
		<path fill="#414042" d="M358.149,500.587l-13.508,7.628c0,0,1.896,12.033-1.435,20.651c-3.331,8.622,5.01,10.602,8.902,2.66
			c3.893-7.939,9.781-24.3,16.127-27.405C374.584,501.014,358.149,500.587,358.149,500.587z"/>
		<path fill="#355C7D" d="M401.256,410.319c-9.618,6.67-8.008,46.126-8.008,46.126s-10.186,5.104-15.773,18.763
			c-5.589,13.659-19.325,25.378-19.325,25.378l9.313,7.628l40.235-40.67c0.972-1.029,1.798-2.186,2.455-3.441l15.598-49.165
			C425.75,414.939,406.376,406.769,401.256,410.319z"/>
		<path fill="#414042" d="M519.387,440.587l13.412,8.305c0,0,7.301-9.172,13.14-12.927c5.838-3.755,8.341-9.387,3.545-11.471
			c-4.798-2.083-12.574,11.389-19.636,9.762C522.79,432.628,519.387,440.587,519.387,440.587z"/>
		<path fill="#2C4D63" d="M416.787,443.194c-16.019-2.191-22.475-13.996-22.475-13.996s0.34-10.995,2.563-14.75
			s14.18-2.362,14.18-2.362l10.755,3.755l3.939,4.394L416.787,443.194z"/>
		<path fill="#355C7D" d="M402.398,416.717l64.135-17.384c3.54-0.96,7.32-0.404,10.436,1.533l50.176,33.117l-7.157,7.62
			c0,0-11.27-5.588-20.583-6.833c-9.313-1.239-29.502-11.176-33.069-16.765C466.335,418.005,412.014,449.311,402.398,416.717z"/>
		<path fill="#F9A91C" d="M434.353,408.057c-2.868-8.534,24.495-37.859,12.87-47.917c0,0-4.693-4.807-10.541-1.864
			c0,0-34.275-4.545-43.104,58.788C392.015,428.127,416.201,418.76,434.353,408.057z"/>
		<path fill="#FAE3D9" d="M445.488,336.405c0,0,2.378,4.469,5.568,4.846c3.188,0.376,3.887-0.292,3.887-0.292
			s-0.336,3.997,0.881,6.678s0.637,6.241-2.857,8.924c-3.492,2.683-7.277,2.538-7.277,2.538l-2.745,5.225
			c0,0-5.277,1.525-8.427-0.117l1.016-6.276c0,0-6.163-1.565-4.489-4.861c1.674-3.298,7.696,0.242,7.696,0.242l-5.676-8.651
			L445.488,336.405z"/>
		<path fill="#B7B7B7" d="M445.689,359.101c-4.059,0.445-5.586-0.959-5.586-0.959s2.029,2.649,4.562,3.225L445.689,359.101z"/>
		<path fill="#B7B7B7" d="M435.533,357.932c0,0,1.102,0.117,4.309-1.236c0,0-2.86,2.646-4.592,2.994L435.533,357.932z"/>
		<polygon fill="#FAE3D9" points="348.277,382.864 342.935,386.651 338.137,386.313 347.295,380.638 		"/>
		<g>
			<path fill="#233A49" d="M337.112,396.049l4.903-3.617c1.904-1.313,2.57-3.832,1.541-5.962l-5.734-11.903
				c-0.572-1.193-1.627-2.1-2.891-2.49c-1.26-0.387-2.645-0.231-3.793,0.432l-5.029,2.913l1.674,2.888l5.032-2.914
				c0.353-0.205,0.763-0.249,1.134-0.128c0.386,0.117,0.693,0.383,0.87,0.746l5.734,11.904c0.311,0.642,0.107,1.398-0.477,1.801
				l-4.946,3.647L337.112,396.049z"/>
		</g>
		<path fill="#FAE3D9" d="M344.642,374.623l-9.566,2.406c-2.172,0.547-3.472,2.772-2.88,4.933l0.479,1.75
			c0.645,2.351,3.229,3.584,5.462,2.602l11.193-4.914L344.642,374.623z"/>
		<path fill="#F3A100" d="M428.853,373.298c-8.341,12.929-27.409,13.353-27.409,13.353s7.11-18.218,10.446-19.332
			c3.337-1.112,18.865,4.172,18.865,4.172L428.853,373.298z"/>
		<path fill="#F9A91C" d="M431.138,363.157l-37.647-5.835l-48.849,17.3l3.636,8.242l40.535-7.859l41.031,2.021
			C429.844,377.026,442.1,368.989,431.138,363.157z"/>
		<path fill="#16252D" d="M347.174,410.834v3.856l-31.453,19.87c-2.437,1.564-5.693,0.601-6.885-2.037l-21.232-46.991l1.387-4.465
			L347.174,410.834z"/>
		<path fill="#233A49" d="M320.691,365.528l26.482,45.306l-30.124,18.249c-2.419,1.464-5.574,0.501-6.764-2.065l-21.296-45.95
			L320.691,365.528z"/>
		<g>
			
				<rect x="312.368" y="365.166" transform="matrix(-0.8379 -0.5459 0.5459 -0.8379 381.829 870.4866)" fill="#456E89" width="15.652" height="26.741"/>
			<path fill="#699BB7" d="M320.152,366.39l-11.006,16.897c0.743,0.484,0.955,1.478,0.469,2.224l8.274,5.387
				c0.484-0.746,1.478-0.955,2.222-0.471l11.008-16.894c-0.742-0.484-0.955-1.479-0.468-2.224l-8.274-5.389
				C321.893,366.666,320.898,366.875,320.152,366.39z"/>
			<g>
				<path fill="#456E89" d="M324.452,380.405l-1.085-0.595c0.414-1.171-0.041-2.167-0.863-2.619
					c-0.928-0.511-1.768-0.266-2.795,0.567c-0.873,0.701-1.357,0.938-1.896,0.639c-0.418-0.229-0.732-0.793-0.292-1.597
					c0.369-0.666,0.831-0.967,1.077-1.117l-0.546-0.639c-0.344,0.205-0.745,0.541-1.109,1.154l-1.01-0.555l-0.355,0.646l1.052,0.578
					c-0.369,1.045-0.05,2.02,0.814,2.494c0.906,0.499,1.746,0.106,2.748-0.728c0.737-0.6,1.313-0.811,1.888-0.497
					c0.593,0.326,0.743,1.061,0.339,1.802c-0.322,0.583-0.817,1.017-1.274,1.254l0.562,0.633c0.463-0.22,0.994-0.743,1.335-1.342
					l1.052,0.578L324.452,380.405z"/>
			</g>
		</g>
		<g>
			
				<rect x="301.018" y="326.371" transform="matrix(-0.7654 0.6435 -0.6435 -0.7654 763.8691 401.0438)" fill="#456E89" width="15.648" height="26.739"/>
			<path fill="#699BB7" d="M297.205,336.255l12.977,15.437c0.68-0.571,1.693-0.484,2.263,0.196l7.56-6.352
				c-0.572-0.68-0.484-1.693,0.195-2.265l-12.977-15.436c-0.68,0.572-1.693,0.484-2.266-0.196l-7.554,6.353
				C297.973,334.671,297.885,335.684,297.205,336.255z"/>
			<g>
				<path fill="#456E89" d="M305.188,343.245l0.937-0.807c0.952,0.795,2.042,0.717,2.756,0.104c0.801-0.691,0.866-1.562,0.446-2.816
					c-0.35-1.064-0.402-1.598,0.065-2.003c0.36-0.31,0.999-0.404,1.597,0.289c0.498,0.577,0.617,1.116,0.672,1.398l0.79-0.286
					c-0.074-0.394-0.248-0.888-0.694-1.444l0.873-0.751l-0.481-0.559l-0.909,0.783c-0.848-0.711-1.874-0.755-2.623-0.111
					c-0.784,0.676-0.707,1.599-0.277,2.829c0.303,0.9,0.299,1.516-0.196,1.942c-0.515,0.442-1.255,0.328-1.806-0.313
					c-0.432-0.503-0.666-1.12-0.729-1.631l-0.79,0.304c0.047,0.509,0.35,1.189,0.79,1.719l-0.908,0.785L305.188,343.245z"/>
			</g>
		</g>
		<g>
			
				<rect x="253.071" y="330.111" transform="matrix(-0.3726 0.928 -0.928 -0.3726 676.8533 229.3554)" fill="#456E89" width="15.649" height="26.74"/>
			<path fill="#699BB7" d="M248.986,345.88l18.714,7.515c0.331-0.824,1.267-1.224,2.093-0.893l3.678-9.162
				c-0.826-0.33-1.226-1.265-0.893-2.089l-18.713-7.515c-0.331,0.824-1.267,1.224-2.093,0.894l-3.678,9.16
				C248.921,344.121,249.32,345.056,248.986,345.88z"/>
			<g>
				<path fill="#456E89" d="M259.365,348.372l0.429-1.159c1.22,0.235,2.137-0.362,2.464-1.243c0.369-0.991,0.003-1.787-0.972-2.68
					c-0.82-0.761-1.126-1.204-0.911-1.784c0.168-0.446,0.68-0.838,1.539-0.521c0.713,0.266,1.079,0.68,1.264,0.9l0.551-0.632
					c-0.254-0.311-0.645-0.658-1.305-0.928l0.401-1.082l-0.69-0.256l-0.419,1.126c-1.087-0.213-2.004,0.245-2.349,1.17
					c-0.36,0.97,0.152,1.744,1.126,2.611c0.699,0.64,0.994,1.18,0.766,1.793c-0.233,0.636-0.938,0.894-1.731,0.6
					c-0.625-0.231-1.126-0.658-1.426-1.075l-0.545,0.648c0.286,0.424,0.881,0.873,1.521,1.123l-0.415,1.126L259.365,348.372z"/>
			</g>
		</g>
		<g>
			
				<rect x="316.506" y="379.013" transform="matrix(-0.518 -0.8554 0.8554 -0.518 156.716 873.0712)" fill="#456E89" width="15.65" height="26.741"/>
			<path fill="#699BB7" d="M329.566,381.42l-17.248,10.447c0.459,0.76,0.217,1.748-0.543,2.205l5.112,8.446
				c0.763-0.459,1.751-0.217,2.208,0.542l17.249-10.447c-0.46-0.76-0.218-1.745,0.542-2.208l-5.111-8.443
				C331.016,382.424,330.027,382.182,329.566,381.42z"/>
			<g>
				<path fill="#456E89" d="M326.495,396.481l-0.639-1.06c-1.153,0.462-2.169,0.049-2.653-0.754
					c-0.551-0.903-0.342-1.753,0.448-2.813c0.663-0.903,0.878-1.396,0.559-1.924c-0.247-0.408-0.825-0.697-1.607-0.223
					c-0.649,0.396-0.934,0.87-1.071,1.123l-0.663-0.518c0.192-0.352,0.512-0.765,1.106-1.156l-0.595-0.986l0.628-0.382l0.622,1.026
					c1.029-0.413,2.018-0.138,2.527,0.708c0.536,0.884,0.182,1.74-0.611,2.775c-0.567,0.763-0.755,1.346-0.415,1.908
					c0.35,0.578,1.09,0.699,1.813,0.262c0.567-0.344,0.979-0.856,1.2-1.324l0.655,0.534c-0.204,0.468-0.702,1.024-1.286,1.39
					l0.623,1.026L326.495,396.481z"/>
			</g>
		</g>
		<g>
			
				<rect x="318.283" y="386.901" transform="matrix(-0.518 -0.8554 0.8554 -0.518 152.6593 886.561)" fill="#456E89" width="15.651" height="26.738"/>
			<path fill="#699BB7" d="M331.343,389.31l-17.247,10.444c0.457,0.76,0.215,1.748-0.545,2.208l5.115,8.446
				c0.76-0.462,1.748-0.22,2.207,0.54l17.25-10.444c-0.463-0.76-0.221-1.745,0.542-2.208l-5.114-8.443
				C332.791,390.312,331.803,390.07,331.343,389.31z"/>
			<g>
				<path fill="#456E89" d="M328.273,404.368l-0.639-1.057c-1.154,0.462-2.17,0.049-2.656-0.754
					c-0.549-0.906-0.339-1.756,0.448-2.816c0.663-0.902,0.881-1.396,0.562-1.924c-0.248-0.407-0.826-0.694-1.607-0.22
					c-0.652,0.394-0.934,0.87-1.074,1.12l-0.66-0.515c0.189-0.352,0.51-0.768,1.106-1.159l-0.597-0.986l0.63-0.382l0.622,1.029
					c1.029-0.416,2.016-0.138,2.527,0.705c0.533,0.886,0.179,1.739-0.611,2.774c-0.567,0.763-0.757,1.349-0.418,1.908
					c0.352,0.581,1.092,0.702,1.813,0.262c0.569-0.341,0.983-0.856,1.2-1.321l0.658,0.534c-0.204,0.468-0.702,1.021-1.285,1.388
					l0.619,1.029L328.273,404.368z"/>
			</g>
		</g>
		<g>
			
				<rect x="326.225" y="392.632" transform="matrix(-0.0443 -0.999 0.999 -0.0443 -56.7529 757.7123)" fill="#456E89" width="15.648" height="26.739"/>
			<path fill="#699BB7" d="M343.898,398.896l-20.146,0.892c0.042,0.887-0.644,1.638-1.533,1.677l0.438,9.863
				c0.887-0.039,1.638,0.647,1.677,1.533l20.145-0.895c-0.038-0.887,0.647-1.635,1.537-1.674l-0.438-9.863
				C344.688,400.467,343.939,399.782,343.898,398.896z"/>
			<g>
				<path fill="#456E89" d="M335.001,410.578l-0.085-1.233c1.208-0.287,1.797-1.211,1.734-2.147
					c-0.074-1.057-0.735-1.629-1.99-2.042c-1.061-0.355-1.52-0.633-1.564-1.25c-0.033-0.473,0.275-1.046,1.189-1.106
					c0.758-0.055,1.261,0.173,1.52,0.297l0.242-0.801c-0.357-0.179-0.858-0.333-1.568-0.308l-0.083-1.151l-0.732,0.053l0.083,1.194
					c-1.08,0.253-1.729,1.052-1.66,2.035c0.071,1.032,0.855,1.528,2.101,1.918c0.902,0.292,1.393,0.666,1.437,1.316
					c0.047,0.677-0.49,1.203-1.332,1.261c-0.664,0.044-1.294-0.138-1.742-0.391l-0.229,0.815c0.435,0.267,1.161,0.43,1.85,0.396
					l0.082,1.195L335.001,410.578z"/>
			</g>
		</g>
		<g>
			<circle fill="#FCB15D" cx="328.4" cy="394.282" r="12.036"/>
			<path fill="#FFC285" d="M319.258,395.336c0,5.049,4.094,9.142,9.143,9.142c5.048,0,9.142-4.093,9.142-9.142
				c0-0.176-0.003-0.353-0.017-0.528c-0.272,4.806-4.253,8.613-9.125,8.613c-4.873,0-8.854-3.807-9.129-8.613
				C319.261,394.983,319.258,395.16,319.258,395.336z"/>
			<path fill="#CE8E4E" d="M319.271,394.808c0.275,4.806,4.256,8.613,9.129,8.613c4.872,0,8.853-3.807,9.125-8.613
				c-0.272-4.804-4.253-8.614-9.125-8.614C323.527,386.194,319.547,390.004,319.271,394.808z"/>
			<path fill="#A36F40" d="M319.258,394.279c0,0.223,0.008,0.443,0.024,0.658c0.336-4.743,4.289-8.49,9.118-8.49
				c4.828,0,8.781,3.747,9.114,8.49c0.019-0.215,0.027-0.435,0.027-0.658c0-5.048-4.094-9.142-9.142-9.142
				C323.352,385.137,319.258,389.23,319.258,394.279z"/>
			<g>
				<g>
					<path fill="#FCB15D" d="M328.719,398.802v-1.145c1.135-0.187,1.74-1.002,1.74-1.872c0-0.98-0.572-1.552-1.707-2.015
						c-0.958-0.396-1.365-0.686-1.365-1.258c0-0.44,0.319-0.947,1.167-0.947c0.705,0,1.156,0.242,1.388,0.375l0.275-0.727
						c-0.319-0.19-0.771-0.366-1.432-0.388v-1.068h-0.683v1.112c-1.013,0.168-1.663,0.862-1.663,1.775
						c0,0.961,0.694,1.468,1.817,1.908c0.814,0.33,1.244,0.705,1.244,1.31c0,0.627-0.528,1.079-1.311,1.079
						c-0.616,0-1.188-0.209-1.589-0.474l-0.264,0.738c0.386,0.275,1.049,0.474,1.688,0.484v1.112H328.719z"/>
				</g>
			</g>
		</g>
		<g>
			<circle fill="#FCB15D" cx="315.182" cy="389.31" r="12.034"/>
			<path fill="#FFC285" d="M306.041,390.364c0,5.049,4.094,9.143,9.143,9.143s9.143-4.094,9.143-9.143
				c0-0.176-0.006-0.352-0.018-0.528c-0.271,4.807-4.252,8.613-9.125,8.613s-8.854-3.807-9.125-8.613
				C306.044,390.012,306.041,390.188,306.041,390.364z"/>
			<path fill="#CE8E4E" d="M306.059,389.836c0.271,4.807,4.252,8.613,9.125,8.613s8.854-3.807,9.125-8.613
				c-0.271-4.804-4.252-8.613-9.125-8.613S306.33,385.032,306.059,389.836z"/>
			<path fill="#A36F40" d="M306.041,389.308c0,0.223,0.006,0.443,0.027,0.658c0.331-4.743,4.284-8.488,9.115-8.488
				c4.828,0,8.781,3.745,9.114,8.488c0.02-0.215,0.028-0.435,0.028-0.658c0-5.049-4.094-9.143-9.143-9.143
				S306.041,384.259,306.041,389.308z"/>
			<g>
				<g>
					<path fill="#FCB15D" d="M314.864,393.833v-1.148c-1.137-0.187-1.743-1.002-1.743-1.872c0-0.98,0.573-1.552,1.71-2.015
						c0.958-0.396,1.365-0.683,1.365-1.255c0-0.44-0.319-0.95-1.167-0.95c-0.707,0-1.158,0.242-1.391,0.375l-0.275-0.727
						c0.32-0.187,0.771-0.363,1.436-0.385v-1.071h0.682v1.115c1.014,0.165,1.666,0.859,1.666,1.775c0,0.958-0.697,1.465-1.82,1.905
						c-0.814,0.33-1.246,0.705-1.246,1.31c0,0.628,0.531,1.079,1.313,1.079c0.617,0,1.189-0.209,1.589-0.473l0.261,0.737
						c-0.385,0.275-1.046,0.474-1.684,0.485v1.115H314.864z"/>
				</g>
			</g>
		</g>
		<g>
			<circle fill="#FCB15D" cx="346.014" cy="451.871" r="12.034"/>
			<path fill="#FFC285" d="M336.873,452.928c0,5.049,4.091,9.139,9.143,9.139c5.048,0,9.142-4.09,9.142-9.139
				c0-0.176-0.006-0.353-0.017-0.529c-0.275,4.807-4.253,8.611-9.125,8.611c-4.876,0-8.856-3.804-9.129-8.611
				C336.876,452.575,336.873,452.751,336.873,452.928z"/>
			<path fill="#CE8E4E" d="M336.887,452.399c0.272,4.807,4.253,8.611,9.129,8.611c4.872,0,8.85-3.804,9.125-8.611
				c-0.275-4.803-4.253-8.616-9.125-8.616C341.14,443.783,337.159,447.596,336.887,452.399z"/>
			<path fill="#A36F40" d="M336.873,451.871c0,0.22,0.006,0.44,0.027,0.655c0.33-4.741,4.283-8.487,9.115-8.487
				c4.828,0,8.781,3.746,9.114,8.487c0.019-0.215,0.027-0.435,0.027-0.655c0-5.049-4.094-9.145-9.142-9.145
				C340.964,442.726,336.873,446.822,336.873,451.871z"/>
			<g>
				<g>
					<path fill="#FCB15D" d="M346.334,456.394v-1.146c1.135-0.187,1.74-1.002,1.74-1.875c0-0.98-0.572-1.553-1.707-2.015
						c-0.961-0.396-1.368-0.683-1.368-1.255c0-0.441,0.319-0.947,1.17-0.947c0.705,0,1.156,0.242,1.388,0.375l0.275-0.727
						c-0.319-0.187-0.771-0.363-1.432-0.385v-1.071h-0.683v1.115c-1.016,0.166-1.665,0.859-1.665,1.773
						c0,0.958,0.693,1.464,1.816,1.905c0.817,0.331,1.247,0.705,1.247,1.311c0,0.627-0.528,1.082-1.311,1.082
						c-0.619,0-1.192-0.209-1.589-0.476l-0.264,0.741c0.386,0.275,1.046,0.474,1.685,0.484v1.112H346.334z"/>
				</g>
			</g>
		</g>
		<g>
			<path fill="#FCB15D" d="M245.937,436.584c0,6.648,5.39,12.033,12.035,12.033s12.036-5.384,12.036-12.033
				c0-6.648-5.391-12.035-12.036-12.035S245.937,429.936,245.937,436.584z"/>
			<path fill="#FFC285" d="M248.83,437.639c0,5.048,4.094,9.142,9.142,9.142c5.049,0,9.143-4.094,9.143-9.142
				c0-0.176-0.003-0.353-0.015-0.529c-0.274,4.807-4.256,8.616-9.128,8.616s-8.853-3.81-9.128-8.616
				C248.832,437.286,248.83,437.462,248.83,437.639z"/>
			<path fill="#CE8E4E" d="M248.844,437.11c0.275,4.807,4.256,8.616,9.128,8.616s8.854-3.81,9.128-8.616
				c-0.274-4.801-4.256-8.613-9.128-8.613S249.119,432.309,248.844,437.11z"/>
			<path fill="#A36F40" d="M248.83,436.582c0,0.226,0.008,0.443,0.027,0.658c0.333-4.743,4.286-8.487,9.114-8.487
				c4.829,0,8.782,3.744,9.114,8.487c0.02-0.215,0.028-0.432,0.028-0.658c0-5.049-4.094-9.142-9.143-9.142
				C252.924,427.439,248.83,431.533,248.83,436.582z"/>
			<g>
				<g>
					<path fill="#FCB15D" d="M258.291,441.107v-1.145c1.135-0.188,1.74-1.002,1.74-1.875c0-0.979-0.572-1.552-1.707-2.018
						c-0.958-0.396-1.365-0.683-1.365-1.255c0-0.44,0.319-0.947,1.167-0.947c0.704,0,1.156,0.242,1.388,0.375l0.275-0.727
						c-0.32-0.187-0.771-0.363-1.432-0.385v-1.068h-0.683v1.112c-1.013,0.166-1.663,0.859-1.663,1.773
						c0,0.961,0.693,1.467,1.816,1.908c0.815,0.331,1.245,0.705,1.245,1.31c0,0.631-0.528,1.082-1.311,1.082
						c-0.616,0-1.189-0.209-1.586-0.474l-0.265,0.738c0.387,0.275,1.047,0.474,1.686,0.485v1.112H258.291z"/>
				</g>
			</g>
		</g>
		<path fill="#2D4B59" d="M311.096,375.939l22.488,38.465l-10.535,6.469c-5.159,3.166-11.929,1.123-14.475-4.372l-10.852-23.41
			c-2.381-5.143-0.077-11.239,5.109-13.52L311.096,375.939z"/>
		<g>
			<circle fill="#FCB15D" cx="312.347" cy="425.515" r="12.034"/>
			<path fill="#FFC285" d="M303.206,426.572c0,5.046,4.094,9.139,9.142,9.139c5.049,0,9.143-4.093,9.143-9.139
				c0-0.176-0.006-0.353-0.017-0.528c-0.272,4.803-4.253,8.61-9.126,8.61c-4.872,0-8.853-3.807-9.125-8.61
				C303.209,426.22,303.206,426.396,303.206,426.572z"/>
			<path fill="#CE8E4E" d="M303.223,426.044c0.272,4.803,4.253,8.61,9.125,8.61c4.873,0,8.854-3.807,9.126-8.61
				c-0.272-4.804-4.253-8.617-9.126-8.617C307.476,417.427,303.495,421.24,303.223,426.044z"/>
			<path fill="#A36F40" d="M303.206,425.515c0,0.22,0.005,0.44,0.027,0.655c0.331-4.743,4.284-8.49,9.114-8.49
				c4.829,0,8.782,3.747,9.115,8.49c0.02-0.215,0.027-0.435,0.027-0.655c0-5.049-4.094-9.145-9.143-9.145
				C307.3,416.37,303.206,420.466,303.206,425.515z"/>
			<g>
				<g>
					<path fill="#FCB15D" d="M312.668,430.038v-1.146c1.134-0.189,1.742-1.004,1.742-1.875c0-0.98-0.575-1.552-1.709-2.015
						c-0.959-0.396-1.369-0.683-1.369-1.255c0-0.44,0.32-0.947,1.17-0.947c0.705,0,1.156,0.242,1.388,0.375l0.278-0.729
						c-0.322-0.187-0.773-0.363-1.435-0.385v-1.068h-0.683v1.112c-1.016,0.165-1.666,0.861-1.666,1.775
						c0,0.958,0.694,1.465,1.817,1.905c0.817,0.33,1.247,0.705,1.247,1.31c0,0.627-0.528,1.079-1.311,1.079
						c-0.619,0-1.191-0.209-1.588-0.474l-0.265,0.738c0.386,0.275,1.046,0.477,1.688,0.487v1.112H312.668z"/>
				</g>
			</g>
		</g>
		<path fill="#FAE3D9" d="M517.348,331.421l8.936,1.091c2.436,0.297,4.176,2.506,3.893,4.945l-0.072,0.611
			c-0.261,2.25-2.166,3.947-4.432,3.947h-3.116c0,0-2.34,0.691-3.169,0.417c-1.01-0.334-2.039-2.692-2.039-2.692V331.421z"/>
	</g>
	<g>
		<g>
			<g>
				<path fill="#35E3D3" d="M464.19,758.562l1.825,0.415c0,0,0.375-1.759,1.029-4.836c0.684-3.072,1.498-7.493,2.385-12.814
					c1.736-10.64,3.366-24.963,3.674-39.349c0.381-14.381-0.424-28.77-1.668-39.483c-1.178-10.726-2.537-17.795-2.537-17.795
					l-1.845,0.319c0,0,1.352,7.025,2.521,17.682c1.238,10.646,2.037,24.943,1.659,39.23c-0.308,14.292-1.926,28.524-3.652,39.095
					c-0.878,5.286-1.69,9.68-2.37,12.732C464.563,756.813,464.19,758.562,464.19,758.562z"/>
			</g>
			<path fill="#35E3D3" d="M457.697,659.284c5.354,2.535,11.804,0.608,11.804,0.608s-0.562-1.589-1.812-3.482
				c-1.291-1.892-3.26-4.08-5.974-5.291c-5.432-2.4-11.813-0.157-11.813-0.157S452.317,656.765,457.697,659.284z"/>
			<path fill="#35E3D3" d="M482.841,669.095c-4.69,3.832-11.419,3.078-11.419,3.078s0.964-6.64,5.536-10.565
				c4.589-3.942,11.317-3.516,11.317-3.516s-0.168,1.784-0.912,4.055C486.582,664.421,485.181,667.171,482.841,669.095z"/>
			<path fill="#35E3D3" d="M476.693,650.907c-2.937,2.681-7.363,2.488-7.363,2.488s0.398-4.404,3.242-7.118
				c2.869-2.723,7.295-2.671,7.295-2.671S479.667,648.215,476.693,650.907z"/>
			<path fill="#35E3D3" d="M470.47,639.467c0.545,3.975-2.103,7.528-2.103,7.528s-3.411-2.802-3.951-6.661
				c-0.594-3.849,1.928-7.516,1.928-7.516S469.854,635.502,470.47,639.467z"/>
			<path fill="#35E3D3" d="M456.826,679.913c3.196,1.763,6.753,2.247,9.572,2.258c2.808,0.017,4.826-0.44,4.826-0.44
				s-0.523-1.999-1.934-4.424c-1.387-2.431-3.559-5.274-6.838-6.971c-6.49-3.363-14.463-1.142-14.463-1.142s0.627,1.8,2.07,4.032
				C451.467,675.462,453.619,678.151,456.826,679.913z"/>
			<path fill="#35E3D3" d="M486.643,694.347c-3.047,2.133-6.67,2.755-9.47,2.871c-2.806,0.112-4.834-0.275-4.834-0.275
				s1.88-8.014,7.837-12.407c6.004-4.415,14.191-3.259,14.191-3.259s-0.383,2.196-1.518,4.936
				C491.711,688.951,489.689,692.216,486.643,694.347z"/>
			<path fill="#35E3D3" d="M456.973,705.848c5.979,4.135,14.172,3.157,14.172,3.157s-0.372-2.04-1.49-4.586
				c-1.147-2.546-3.124-5.585-6.157-7.578c-3.045-1.993-6.665-2.591-9.459-2.715c-2.806-0.124-4.837,0.221-4.837,0.221
				s0.487,1.853,1.654,4.209C452.048,700.915,454.014,703.794,456.973,705.848z"/>
			<path fill="#35E3D3" d="M485.313,723.015c-6.555,3.639-14.493,1.241-14.493,1.241s0.661-1.957,2.139-4.38
				c1.418-2.425,3.634-5.338,6.86-7.237c6.364-3.834,14.414-1.918,14.414-1.918s-0.531,2.155-1.982,4.772
				C490.813,718.111,488.627,721.181,485.313,723.015z"/>
			<path fill="#35E3D3" d="M454.858,730.463c5.618,4.658,13.853,4.419,13.853,4.419s-0.74-8.286-6.561-12.804
				c-5.742-4.492-13.995-3.76-13.995-3.76S449.314,725.836,454.858,730.463z"/>
			<path fill="#35E3D3" d="M481.541,750.104c-6.826,3.042-14.529-0.065-14.529-0.065s3.314-7.535,9.977-10.767
				c6.738-3.243,14.565-0.614,14.565-0.614S488.454,747.055,481.541,750.104z"/>
		</g>
		<g>
			<g>
				<path fill="#35E3D3" d="M297.959,760.885l1.512-1.104c0,0-1.082-1.438-2.973-3.951c-1.869-2.532-4.67-6.051-8.102-10.21
					c-6.891-8.294-16.627-18.923-27.275-28.596c-10.604-9.724-21.989-18.563-30.889-24.654c-8.867-6.149-15.092-9.765-15.092-9.765
					l-0.969,1.603c0,0,6.186,3.593,14.994,9.701c8.846,6.053,20.156,14.835,30.688,24.494c10.582,9.612,20.255,20.175,27.104,28.414
					c3.408,4.133,6.191,7.628,8.049,10.142C296.886,759.459,297.959,760.885,297.959,760.885z"/>
			</g>
			<path fill="#35E3D3" d="M218.794,700.631c5.426-2.375,8.206-8.506,8.206-8.506s-1.566-0.619-3.818-0.922
				c-2.273-0.268-5.217-0.215-7.911,1.037c-5.376,2.521-7.87,8.81-7.87,8.81S213.365,703.034,218.794,700.631z"/>
			<path fill="#35E3D3" d="M242.699,688.098c-0.188,6.054-5.176,10.637-5.176,10.637s-4.377-5.084-4.338-11.113
				c0.039-6.048,4.779-10.843,4.779-10.843s1.232,1.296,2.458,3.347C241.626,682.207,242.781,685.069,242.699,688.098z"/>
			<path fill="#35E3D3" d="M224.941,680.8c0.096,3.976-2.957,7.188-2.957,7.188s-3.061-3.19-3.242-7.116
				c-0.174-3.953,2.771-7.259,2.771-7.259S224.861,676.789,224.941,680.8z"/>
			<path fill="#35E3D3" d="M212.223,677.986c3.358,2.199,4.301,6.529,4.301,6.529s-4.354,0.732-7.617-1.393
				c-3.293-2.078-4.405-6.387-4.405-6.387S208.828,675.851,212.223,677.986z"/>
			<path fill="#35E3D3" d="M233.789,714.824c3.427-1.252,6.127-3.619,7.985-5.739c1.853-2.108,2.835-3.931,2.835-3.931
				s-1.853-0.917-4.607-1.445c-2.745-0.545-6.315-0.776-9.745,0.586c-6.803,2.689-10.356,10.164-10.356,10.164
				s1.77,0.707,4.402,1.084C226.909,715.947,230.354,716.088,233.789,714.824z"/>
			<path fill="#35E3D3" d="M264.246,701.801c-0.392,3.703-2.299,6.841-4.05,9.029c-1.757,2.191-3.381,3.466-3.381,3.466
				s-4.812-6.676-4.217-14.056c0.61-7.427,6.854-12.845,6.854-12.845s1.406,1.729,2.728,4.383
				C263.5,694.435,264.639,698.102,264.246,701.801z"/>
			<path fill="#35E3D3" d="M253.451,731.735c7.045-1.798,11.684-8.619,11.684-8.619s-1.784-1.06-4.438-1.886
				c-2.676-0.807-6.266-1.311-9.762-0.328c-3.502,0.988-6.326,3.328-8.256,5.354c-1.936,2.037-3.009,3.796-3.009,3.796
				s1.718,0.846,4.267,1.512C246.498,732.214,249.961,732.621,253.451,731.735z"/>
			<path fill="#35E3D3" d="M285.004,721.616c-1.558,7.336-8.577,11.751-8.577,11.751s-1.04-1.78-1.899-4.486
				c-0.9-2.662-1.641-6.244-0.958-9.927c1.282-7.317,8.011-12.132,8.011-12.132s1.277,1.814,2.301,4.625
				C284.914,714.249,285.797,717.916,285.004,721.616z"/>
			<path fill="#35E3D3" d="M270.638,749.485c7.198-1.181,12.423-7.554,12.423-7.554s-6.738-4.875-13.967-3.452
				c-7.155,1.385-12.02,8.093-12.02,8.093S263.505,750.631,270.638,749.485z"/>
			<path fill="#35E3D3" d="M302.967,742.242c-2.184,7.146-9.586,10.921-9.586,10.921s-3.507-7.446-1.577-14.593
				c1.977-7.212,9.099-11.394,9.099-11.394S305.205,735.027,302.967,742.242z"/>
		</g>
		<g>
			<g>
				<path fill="#F3A100" d="M732.705,768.395l2.547,0.146c0,0,0.082-2.376,0.704-6.499c0.617-4.121,1.93-9.971,4.298-16.804
					c2.32-6.843,5.673-14.647,9.271-23.06c3.587-8.41,7.413-17.382,11.239-26.351c15.303-35.88,30.608-71.763,30.608-71.763
					l-2.345-0.999c0,0-15.304,35.88-30.609,71.76c-3.826,8.972-7.652,17.943-11.239,26.351c-3.593,8.401-6.973,16.269-9.338,23.236
					c-2.411,6.953-3.769,12.979-4.404,17.243C732.793,765.92,732.705,768.395,732.705,768.395z"/>
			</g>
			<path fill="#F3A100" d="M767.81,633.259c4.52,6.827,13.472,8.861,13.472,8.861s1.624-9.037-2.896-15.864
				c-4.521-6.827-13.476-8.861-13.476-8.861S763.289,626.432,767.81,633.259z"/>
			<path fill="#F3A100" d="M791.222,661.621c-8.058,1.462-15.721-3.593-15.721-3.593s5.397-7.424,13.452-8.889
				c8.058-1.462,15.722,3.593,15.722,3.593S799.276,660.156,791.222,661.621z"/>
			<path fill="#F3A100" d="M795.904,636.738c-5.285,0.961-10.317-2.356-10.317-2.356s3.543-4.875,8.831-5.836
				c5.288-0.958,10.317,2.359,10.317,2.359S801.192,635.777,795.904,636.738z"/>
			<path fill="#F3A100" d="M797.041,619.341c-2.337,4.837-7.978,6.95-7.978,6.95s-1.855-5.733,0.484-10.573
				c2.335-4.839,7.978-6.95,7.978-6.95S799.378,614.501,797.041,619.341z"/>
			<path fill="#F3A100" d="M752.925,658.689c5.547,8.379,16.536,10.876,16.536,10.876s1.993-11.091-3.557-19.471
				c-5.547-8.379-16.536-10.876-16.536-10.876S747.375,650.31,752.925,658.689z"/>
			<path fill="#F3A100" d="M781.661,693.501c-9.891,1.795-19.297-4.407-19.297-4.407s6.626-9.114,16.514-10.912
				c9.889-1.795,19.295,4.41,19.295,4.41S791.55,691.707,781.661,693.501z"/>
			<path fill="#F3A100" d="M738.321,692.926c5.547,8.38,16.536,10.874,16.536,10.874s1.993-11.089-3.557-19.468
				c-5.547-8.383-16.536-10.877-16.536-10.877S732.771,684.547,738.321,692.926z"/>
			<path fill="#F3A100" d="M767.058,727.738c-9.888,1.795-19.295-4.41-19.295-4.41s6.624-9.114,16.512-10.909
				c9.891-1.795,19.297,4.407,19.297,4.407S776.945,725.94,767.058,727.738z"/>
			<path fill="#F3A100" d="M724.34,725.819c2.769,4.316,6.973,6.956,10.455,8.536c3.485,1.578,6.251,2.123,6.251,2.123
				s0.416-2.789,0.21-6.626c-0.212-3.843-1.088-8.719-3.868-12.902c-5.547-8.38-16.536-10.877-16.536-10.877
				S718.864,717.068,724.34,725.819z"/>
			<path fill="#F3A100" d="M755.468,758.085c-4.63,1.079-9.505,0.826-13.296,0.177c-3.771-0.639-6.37-1.716-6.37-1.716
				s1.189-2.563,3.747-5.313c2.535-2.761,6.425-5.638,11.259-6.593c4.843-0.958,9.674,0.102,13.288,1.34
				c3.617,1.245,6.034,2.668,6.034,2.668s-1.476,1.99-3.986,4.063C763.614,754.804,760.079,757.006,755.468,758.085z"/>
		</g>
	</g>
</g>
</svg>
